Coordinates
version=1
nRows=23
nColumns=38
inDegrees=no

Units are S.I. units (second, meters, Newtons, ...)
If the header above contains a line with 'inDegrees', this indicates whether rotational values are in degrees (yes) or radians (no).

endheader
time	pelvis_tilt	pelvis_list	pelvis_rotation	pelvis_tx	pelvis_ty	pelvis_tz	hip_flexion_r	hip_adduction_r	hip_rotation_r	knee_angle_r	ankle_angle_r	subtalar_angle_r	mtp_angle_r	hip_flexion_l	hip_adduction_l	hip_rotation_l	knee_angle_l	ankle_angle_l	subtalar_angle_l	mtp_angle_l	lumbar_extension	lumbar_bending	lumbar_rotation	arm_flex_r	arm_add_r	arm_rot_r	elbow_flex_r	pro_sup_r	wrist_flex_r	wrist_dev_r	arm_flex_l	arm_add_l	arm_rot_l	elbow_flex_l	pro_sup_l	wrist_flex_l	wrist_dev_l
0.43	-2.6928	1.49794	1.1505	0.871266	0.485417	1.03671	0.371038	0.0925599	0.00187931	0.622644	-0.0797486	0	0	0.125447	-0.068021	-0.0835959	1.21415	-0.239698	0	0	0.0208281	0.116033	-0.053515	-0.252363	-0.263426	-0.226539	0.445338	0.265695	0	0	-0.115898	-0.656076	0.989873	0.713145	0.705087	0	0
0.44	-2.72723	1.50403	1.18298	0.870404	0.474927	1.03832	0.35215	0.0884921	0.00119758	0.617135	-0.0747835	0	0	0.145233	-0.0620236	-0.0869003	1.2355	-0.218781	0	0	0.0139815	0.111129	-0.0476422	-0.251374	-0.262357	-0.226511	0.44115	0.264172	0	0	-0.120388	-0.648378	1.00299	0.707756	0.69375	0	0
0.45	-2.76866	1.50904	1.22196	0.869537	0.464432	1.0398	0.333084	0.0852242	0.00194765	0.61079	-0.0689107	0	0	0.165929	-0.0566527	-0.0910555	1.2527	-0.200797	0	0	0.00852593	0.106782	-0.0415519	-0.250709	-0.261763	-0.2258	0.437089	0.263475	0	0	-0.125145	-0.640206	1.01577	0.702806	0.680661	0	0
0.46	-2.81931	1.513	1.26982	0.868635	0.453985	1.04116	0.314349	0.0821932	0.00332121	0.602941	-0.0631338	0	0	0.187251	-0.0516623	-0.0954256	1.26527	-0.185557	0	0	0.00446484	0.102548	-0.0356525	-0.249628	-0.261056	-0.22607	0.432129	0.261643	0	0	-0.130517	-0.632291	1.02861	0.698346	0.666842	0	0
0.47	-2.87953	1.51589	1.32625	0.867573	0.443543	1.0424	0.296246	0.0796538	0.00539415	0.593817	-0.0577403	0	0	0.208624	-0.0475037	-0.101267	1.27286	-0.171489	0	0	0.00193007	0.0982435	-0.0294075	-0.247894	-0.260493	-0.22451	0.425748	0.261012	0	0	-0.136664	-0.624696	1.04159	0.69408	0.65224	0	0
0.48	-2.95083	1.51738	1.39293	0.866364	0.433098	1.04346	0.279406	0.0773887	0.00788395	0.5842	-0.0530044	0	0	0.230441	-0.0439117	-0.108828	1.27591	-0.15754	0	0	0.00130671	0.0936233	-0.0230016	-0.245632	-0.260004	-0.220748	0.418234	0.262081	0	0	-0.14334	-0.616689	1.05518	0.688327	0.638744	0	0
0.49	-3.02765	1.51921	1.4665	0.865356	0.422982	1.04451	0.262403	0.0741622	0.0081058	0.574621	-0.0490193	0	0	0.25198	-0.0396863	-0.115333	1.27563	-0.144421	0	0	-0.000726216	0.088706	-0.0180883	-0.242565	-0.259275	-0.218484	0.41149	0.262011	0	0	-0.150011	-0.608555	1.06659	0.682441	0.630291	0	0
0.5	-3.11731	1.52101	1.55331	0.86447	0.41302	1.04553	0.245506	0.069995	0.00722485	0.565346	-0.0451504	0	0	0.272628	-0.0348931	-0.122327	1.27153	-0.130622	0	0	-0.00349063	0.0832661	-0.0137266	-0.239187	-0.258493	-0.216401	0.405652	0.262099	0	0	-0.156633	-0.601181	1.07732	0.677992	0.622452	0	0
0.51	3.05744	1.52192	1.65883	0.863647	0.403085	1.04642	0.229378	0.0648289	0.00611642	0.556458	-0.0413811	0	0	0.292306	-0.0297793	-0.131176	1.26276	-0.116379	0	0	-0.00579913	0.0769893	-0.0095684	-0.236066	-0.257516	-0.214054	0.400724	0.262682	0	0	-0.163965	-0.594075	1.08679	0.673587	0.615175	0	0
0.52	2.93358	1.52228	1.78004	0.862988	0.393169	1.04722	0.213526	0.0584593	0.00426152	0.548269	-0.0377849	0	0	0.310658	-0.023747	-0.14098	1.24912	-0.10271	0	0	-0.00836012	0.0702007	-0.00598347	-0.233252	-0.256653	-0.211266	0.397223	0.263999	0	0	-0.171348	-0.586901	1.09593	0.669156	0.608741	0	0
0.53	2.80055	1.52259	1.91132	0.862567	0.383362	1.04802	0.197466	0.0511062	0.000549435	0.54085	-0.0346062	0	0	0.327523	-0.0164615	-0.150703	1.23058	-0.09122	0	0	-0.0122904	0.0634485	-0.00349907	-0.230555	-0.256043	-0.209191	0.395423	0.265041	0	0	-0.177869	-0.579852	1.10455	0.665964	0.599622	0	0
0.54	2.67404	1.52255	2.03688	0.862346	0.373677	1.04872	0.1817	0.0437993	-0.00477174	0.534198	-0.0314529	0	0	0.343253	-0.00915988	-0.159755	1.20782	-0.0826563	0	0	-0.0170498	0.0574334	-0.00173582	-0.228167	-0.255621	-0.208458	0.395183	0.265519	0	0	-0.183355	-0.572726	1.11449	0.662878	0.590454	0	0
0.55	2.57574	1.52074	2.13339	0.86214	0.363856	1.04911	0.167711	0.0373101	-0.00917665	0.527939	-0.0282127	0	0	0.358708	-0.00296277	-0.1703	1.18052	-0.0760294	0	0	-0.0196258	0.0521626	0.000758561	-0.226831	-0.255249	-0.20966	0.395717	0.265276	0	0	-0.189317	-0.565685	1.12453	0.660678	0.58046	0	0
0.56	2.48365	1.51976	2.22378	0.861951	0.353934	1.04943	0.152022	0.0317807	-0.0131481	0.520887	-0.024984	0	0	0.371449	0.00225084	-0.180827	1.14956	-0.070875	0	0	-0.0232577	0.0476417	0.00307426	-0.225704	-0.254841	-0.212189	0.396777	0.264561	0	0	-0.195497	-0.559017	1.13398	0.658991	0.570084	0	0
0.57	2.39262	1.51974	2.31384	0.861771	0.344056	1.04967	0.134636	0.0273147	-0.0170718	0.512945	-0.021942	0	0	0.381631	0.00682704	-0.190802	1.11514	-0.0666647	0	0	-0.0284367	0.0438796	0.00461697	-0.22409	-0.254455	-0.214409	0.398016	0.264721	0	0	-0.201683	-0.553267	1.14229	0.658711	0.560089	0	0
0.58	2.30737	1.52019	2.39858	0.861616	0.334249	1.04982	0.116598	0.0238685	-0.0206544	0.504718	-0.0192232	0	0	0.389824	0.0108548	-0.19996	1.07725	-0.0634237	0	0	-0.0343393	0.0409084	0.00564107	-0.221937	-0.254192	-0.216208	0.399078	0.26566	0	0	-0.207814	-0.547542	1.15006	0.658062	0.552001	0	0
0.59	2.20976	1.5218	2.49596	0.861474	0.324454	1.04996	0.0966041	0.0216071	-0.0241345	0.495496	-0.0166496	0	0	0.394752	0.0139501	-0.209366	1.03524	-0.0617984	0	0	-0.0421594	0.038709	0.00651126	-0.219701	-0.253935	-0.218787	0.400785	0.268326	0	0	-0.211811	-0.542549	1.16061	0.659025	0.53735	0	0
0.6	2.15141	1.52254	2.55398	0.861361	0.31473	1.04977	0.0796876	0.0204525	-0.0262581	0.488427	-0.0133213	0	0	0.400652	0.0164401	-0.217836	0.989734	-0.061851	0	0	-0.0476952	0.0373299	0.00760966	-0.217514	-0.253855	-0.22092	0.40219	0.27193	0	0	-0.216215	-0.53776	1.16927	0.660632	0.521704	0	0
0.61	2.14171	1.52254	2.56306	0.861282	0.305107	1.04923	0.0660987	0.0202491	-0.0268013	0.483107	-0.00962403	0	0	0.408073	0.0183966	-0.225362	0.941385	-0.0631985	0	0	-0.0505209	0.0367219	0.00919081	-0.215368	-0.254187	-0.221617	0.403173	0.274643	0	0	-0.221898	-0.531322	1.17647	0.658577	0.519337	0	0
0.62	2.16273	1.52205	2.54185	0.861236	0.295465	1.04842	0.0533557	0.0206067	-0.0274276	0.476045	-0.00542003	0	0	0.415733	0.0202947	-0.231641	0.88993	-0.0661909	0	0	-0.0514134	0.0362784	0.0102311	-0.213347	-0.254211	-0.223967	0.403645	0.275681	0	0	-0.228329	-0.525052	1.18178	0.656241	0.518385	0	0
0.63	2.21171	1.52112	2.493	0.861239	0.285757	1.04738	0.0420631	0.0214824	-0.0283057	0.469406	-0.00124061	0	0	0.4235	0.0221499	-0.236464	0.83591	-0.0706323	0	0	-0.0503752	0.0362093	0.0107917	-0.211548	-0.254032	-0.227268	0.403641	0.275746	0	0	-0.235138	-0.518593	1.18556	0.653681	0.515828	0	0
0.64	2.27213	1.52003	2.43266	0.86131	0.275979	1.04619	0.0316986	0.0225936	-0.0294821	0.464014	0.00289425	0	0	0.430514	0.0239978	-0.239766	0.78003	-0.076785	0	0	-0.0484329	0.0366418	0.011282	-0.209983	-0.254185	-0.229088	0.40349	0.277078	0	0	-0.241363	-0.511557	1.19039	0.650517	0.512653	0	0
0.65	2.33631	1.5185	2.36825	0.861443	0.266128	1.04484	0.0223152	0.0233927	-0.0310828	0.460102	0.00668999	0	0	0.43676	0.0261139	-0.241305	0.723304	-0.0845289	0	0	-0.0456615	0.0370853	0.0121189	-0.208629	-0.254432	-0.230772	0.402761	0.278043	0	0	-0.247733	-0.504749	1.19555	0.647201	0.510125	0	0
